<?xml version="1.0" encoding="UTF-8" standalone="no"?>
<!DOCTYPE svg PUBLIC "-//W3C//DTD SVG 1.1//EN"
 "http://www.w3.org/Graphics/SVG/1.1/DTD/svg11.dtd">
<!-- Generated by graphviz version 5.0.1 (20220820.1526)
 -->
<!-- Pages: 1 -->
<svg width="750pt" height="292pt"
 viewBox="0.00 0.00 750.00 292.00" xmlns="http://www.w3.org/2000/svg" xmlns:xlink="http://www.w3.org/1999/xlink">
<g id="graph0" class="graph" transform="scale(1 1) rotate(0) translate(4 288)">
<polygon fill="white" stroke="none" points="-4,4 -4,-288 746,-288 746,4 -4,4"/>
<g id="clust1" class="cluster">
<title>cluster_.\include\ringen</title>
<polygon fill="none" stroke="black" points="8,-8 8,-276 734,-276 734,-8 8,-8"/>
</g>
<!-- blocking_wait_strategy -->
<g id="node1" class="node">
<title>blocking_wait_strategy</title>
<ellipse fill="none" stroke="black" cx="427" cy="-106" rx="94.78" ry="18"/>
<text text-anchor="middle" x="427" y="-102.3" font-family="Times New Roman,serif" font-size="14.00">blocking_wait_strategy</text>
</g>
<!-- sequence -->
<g id="node2" class="node">
<title>sequence</title>
<ellipse fill="none" stroke="black" cx="370" cy="-34" rx="44.39" ry="18"/>
<text text-anchor="middle" x="370" y="-30.3" font-family="Times New Roman,serif" font-size="14.00">sequence</text>
</g>
<!-- blocking_wait_strategy&#45;&gt;sequence -->
<g id="edge1" class="edge">
<title>blocking_wait_strategy&#45;&gt;sequence</title>
<path fill="none" stroke="red" d="M413.2,-88.05C406.17,-79.42 397.49,-68.76 389.76,-59.27"/>
<polygon fill="red" stroke="red" points="392.31,-56.85 383.28,-51.31 386.88,-61.27 392.31,-56.85"/>
</g>
<!-- multi_threaded_claim_strategy -->
<g id="node3" class="node">
<title>multi_threaded_claim_strategy</title>
<ellipse fill="none" stroke="black" cx="604" cy="-250" rx="121.58" ry="18"/>
<text text-anchor="middle" x="604" y="-246.3" font-family="Times New Roman,serif" font-size="14.00">multi_threaded_claim_strategy</text>
</g>
<!-- config -->
<g id="node4" class="node">
<title>config</title>
<ellipse fill="none" stroke="black" cx="662" cy="-34" rx="33.6" ry="18"/>
<text text-anchor="middle" x="662" y="-30.3" font-family="Times New Roman,serif" font-size="14.00">config</text>
</g>
<!-- multi_threaded_claim_strategy&#45;&gt;config -->
<g id="edge2" class="edge">
<title>multi_threaded_claim_strategy&#45;&gt;config</title>
<path fill="none" stroke="red" d="M627,-232.24C654.25,-210.76 698.11,-170.66 715,-124 720.45,-108.96 721.12,-102.78 715,-88 709.73,-75.29 699.78,-64.04 689.9,-55.21"/>
<polygon fill="red" stroke="red" points="692,-52.4 682.09,-48.66 687.51,-57.77 692,-52.4"/>
</g>
<!-- sequence_barrier -->
<g id="node5" class="node">
<title>sequence_barrier</title>
<ellipse fill="none" stroke="black" cx="633" cy="-106" rx="72.59" ry="18"/>
<text text-anchor="middle" x="633" y="-102.3" font-family="Times New Roman,serif" font-size="14.00">sequence_barrier</text>
</g>
<!-- multi_threaded_claim_strategy&#45;&gt;sequence_barrier -->
<g id="edge3" class="edge">
<title>multi_threaded_claim_strategy&#45;&gt;sequence_barrier</title>
<path fill="none" stroke="red" d="M623.91,-232C633.47,-222.51 643.92,-209.82 649,-196 656.41,-175.83 651.32,-151.78 644.98,-133.77"/>
<polygon fill="red" stroke="red" points="648.15,-132.27 641.29,-124.19 641.62,-134.78 648.15,-132.27"/>
</g>
<!-- sequence_barrier_group -->
<g id="node6" class="node">
<title>sequence_barrier_group</title>
<ellipse fill="none" stroke="black" cx="541" cy="-178" rx="98.58" ry="18"/>
<text text-anchor="middle" x="541" y="-174.3" font-family="Times New Roman,serif" font-size="14.00">sequence_barrier_group</text>
</g>
<!-- multi_threaded_claim_strategy&#45;&gt;sequence_barrier_group -->
<g id="edge4" class="edge">
<title>multi_threaded_claim_strategy&#45;&gt;sequence_barrier_group</title>
<path fill="none" stroke="red" d="M588.75,-232.05C581.01,-223.46 571.47,-212.86 562.96,-203.4"/>
<polygon fill="red" stroke="red" points="565.4,-200.88 556.11,-195.79 560.2,-205.56 565.4,-200.88"/>
</g>
<!-- sequence_range -->
<g id="node7" class="node">
<title>sequence_range</title>
<ellipse fill="none" stroke="black" cx="335" cy="-178" rx="68.79" ry="18"/>
<text text-anchor="middle" x="335" y="-174.3" font-family="Times New Roman,serif" font-size="14.00">sequence_range</text>
</g>
<!-- multi_threaded_claim_strategy&#45;&gt;sequence_range -->
<g id="edge5" class="edge">
<title>multi_threaded_claim_strategy&#45;&gt;sequence_range</title>
<path fill="none" stroke="red" d="M546.62,-234.07C500.91,-222.17 437.24,-205.61 391.71,-193.76"/>
<polygon fill="red" stroke="red" points="392.55,-190.36 381.99,-191.23 390.79,-197.13 392.55,-190.36"/>
</g>
<!-- sequence_barrier&#45;&gt;sequence -->
<g id="edge8" class="edge">
<title>sequence_barrier&#45;&gt;sequence</title>
<path fill="none" stroke="red" d="M585.37,-92.32C537.14,-79.49 463.08,-59.77 415.59,-47.13"/>
<polygon fill="red" stroke="red" points="416.44,-43.74 405.88,-44.55 414.64,-50.5 416.44,-43.74"/>
</g>
<!-- sequence_barrier&#45;&gt;config -->
<g id="edge7" class="edge">
<title>sequence_barrier&#45;&gt;config</title>
<path fill="none" stroke="red" d="M640.02,-88.05C643.37,-79.97 647.45,-70.12 651.18,-61.11"/>
<polygon fill="red" stroke="red" points="654.45,-62.37 655.04,-51.79 647.98,-59.69 654.45,-62.37"/>
</g>
<!-- sequence_barrier_group&#45;&gt;sequence -->
<g id="edge9" class="edge">
<title>sequence_barrier_group&#45;&gt;sequence</title>
<path fill="none" stroke="red" d="M544.11,-159.87C546.63,-140.27 547.47,-108.27 531,-88 505.24,-56.3 460.09,-43.39 424.14,-38.22"/>
<polygon fill="red" stroke="red" points="424.15,-34.7 413.79,-36.91 423.27,-41.64 424.15,-34.7"/>
</g>
<!-- sequence_barrier_group&#45;&gt;sequence_barrier -->
<g id="edge10" class="edge">
<title>sequence_barrier_group&#45;&gt;sequence_barrier</title>
<path fill="none" stroke="red" d="M562.8,-160.41C574.92,-151.19 590.17,-139.59 603.36,-129.55"/>
<polygon fill="red" stroke="red" points="605.83,-132.07 611.67,-123.23 601.59,-126.5 605.83,-132.07"/>
</g>
<!-- sequence_range&#45;&gt;sequence -->
<g id="edge11" class="edge">
<title>sequence_range&#45;&gt;sequence</title>
<path fill="none" stroke="red" d="M327.95,-160.04C321.4,-141.71 313.93,-111.91 323,-88 327.32,-76.62 335.33,-66.11 343.52,-57.51"/>
<polygon fill="red" stroke="red" points="346.01,-59.97 350.69,-50.46 341.11,-54.98 346.01,-59.97"/>
</g>
<!-- ring_buffer -->
<g id="node8" class="node">
<title>ring_buffer</title>
<ellipse fill="none" stroke="black" cx="243" cy="-106" rx="51.19" ry="18"/>
<text text-anchor="middle" x="243" y="-102.3" font-family="Times New Roman,serif" font-size="14.00">ring_buffer</text>
</g>
<!-- ring_buffer&#45;&gt;sequence -->
<g id="edge6" class="edge">
<title>ring_buffer&#45;&gt;sequence</title>
<path fill="none" stroke="red" d="M269.31,-90.5C288.55,-79.89 314.83,-65.41 335.71,-53.9"/>
<polygon fill="red" stroke="red" points="337.52,-56.9 344.59,-49.01 334.14,-50.77 337.52,-56.9"/>
</g>
<!-- single_threaded_claim_strategy -->
<g id="node9" class="node">
<title>single_threaded_claim_strategy</title>
<ellipse fill="none" stroke="black" cx="340" cy="-250" rx="124.28" ry="18"/>
<text text-anchor="middle" x="340" y="-246.3" font-family="Times New Roman,serif" font-size="14.00">single_threaded_claim_strategy</text>
</g>
<!-- single_threaded_claim_strategy&#45;&gt;sequence_barrier -->
<g id="edge12" class="edge">
<title>single_threaded_claim_strategy&#45;&gt;sequence_barrier</title>
<path fill="none" stroke="red" d="M368.65,-232.39C383.16,-223.01 400.33,-210.3 413,-196 425.14,-182.3 418.56,-171.24 433,-160 453.69,-143.9 515.79,-128.93 565.36,-119.04"/>
<polygon fill="red" stroke="red" points="566.27,-122.43 575.41,-117.07 564.92,-115.56 566.27,-122.43"/>
</g>
<!-- single_threaded_claim_strategy&#45;&gt;sequence_barrier_group -->
<g id="edge13" class="edge">
<title>single_threaded_claim_strategy&#45;&gt;sequence_barrier_group</title>
<path fill="none" stroke="red" d="M385.36,-233.2C415.68,-222.64 455.71,-208.7 487.58,-197.6"/>
<polygon fill="red" stroke="red" points="488.89,-200.85 497.19,-194.26 486.59,-194.24 488.89,-200.85"/>
</g>
<!-- single_threaded_claim_strategy&#45;&gt;sequence_range -->
<g id="edge14" class="edge">
<title>single_threaded_claim_strategy&#45;&gt;sequence_range</title>
<path fill="none" stroke="red" d="M338.76,-231.7C338.21,-223.98 337.55,-214.71 336.94,-206.11"/>
<polygon fill="red" stroke="red" points="340.43,-205.83 336.22,-196.1 333.44,-206.33 340.43,-205.83"/>
</g>
<!-- spin_wait_strategy -->
<g id="node10" class="node">
<title>spin_wait_strategy</title>
<ellipse fill="none" stroke="black" cx="95" cy="-106" rx="78.79" ry="18"/>
<text text-anchor="middle" x="95" y="-102.3" font-family="Times New Roman,serif" font-size="14.00">spin_wait_strategy</text>
</g>
<!-- spin_wait_strategy&#45;&gt;sequence -->
<g id="edge15" class="edge">
<title>spin_wait_strategy&#45;&gt;sequence</title>
<path fill="none" stroke="red" d="M145.44,-92.16C196.36,-79.2 274.33,-59.35 323.71,-46.78"/>
<polygon fill="red" stroke="red" points="324.67,-50.15 333.5,-44.29 322.94,-43.37 324.67,-50.15"/>
</g>
<!-- spin_wait -->
<g id="node11" class="node">
<title>spin_wait</title>
<ellipse fill="none" stroke="black" cx="95" cy="-34" rx="45.49" ry="18"/>
<text text-anchor="middle" x="95" y="-30.3" font-family="Times New Roman,serif" font-size="14.00">spin_wait</text>
</g>
<!-- spin_wait_strategy&#45;&gt;spin_wait -->
<g id="edge16" class="edge">
<title>spin_wait_strategy&#45;&gt;spin_wait</title>
<path fill="none" stroke="red" d="M95,-87.7C95,-79.98 95,-70.71 95,-62.11"/>
<polygon fill="red" stroke="red" points="98.5,-62.1 95,-52.1 91.5,-62.1 98.5,-62.1"/>
</g>
</g>
</svg>
